# xmcd
#
# Track frame offsets:
#	150
#	19680
#	40383
#	55585
#	75579
#	98808
#	120366
#	137051
#	152139
#	170193
#
# Disc length: 2588 seconds
#
# Revision: 0
# Processed by: cddbd v1.5.2PL0 Copyright (c) Steve Scherf et al.
# Submitted via: audiograbber 1.83.01
#
DISCID=780a1a0a
DTITLE=Ronnie Milsap - Lost In The Fifties Tonight
DYEAR=1985
DGENRE=Country
TTITLE0=Lost In The Fifties Tonight (in the still of the night)
TTITLE1=In Love
TTITLE2=Old Fashioned Girl Like You
TTITLE3=I Heard It Through The Grapevine
TTITLE4=Don't Take It Tonight
TTITLE5=How Do I Turn You On
TTITLE6=Happy, Happy Birthday Baby
TTITLE7=Nashville Moon
TTITLE8=I Only Remember The Good Times
TTITLE9=Money (that's what I want)
EXTD=
EXTT0=
EXTT1=
EXTT2=
EXTT3=
EXTT4=
EXTT5=
EXTT6=
EXTT7=
EXTT8=
EXTT9=
PLAYORDER=
